<svg version="1.1" xmlns="http://www.w3.org/2000/svg" xmlns:xlink="http://www.w3.org/1999/xlink" width="187.23539" height="253.38333" viewBox="0,0,187.23539,253.38333"><defs><linearGradient x1="239.99387" y1="306.87861" x2="239.99387" y2="53.49981" gradientUnits="userSpaceOnUse" id="color-1"><stop offset="0" stop-color="#8e8e8e"/><stop offset="1" stop-color="#e0e0e0"/></linearGradient></defs><g transform="translate(-146.38231,-53.30834)"><g data-paper-data="{&quot;isPaintingLayer&quot;:true}" fill-rule="evenodd" stroke="none" stroke-width="1" stroke-linecap="butt" stroke-linejoin="miter" stroke-miterlimit="10" stroke-dasharray="" stroke-dashoffset="0" style="mix-blend-mode: normal"><path d="M333.22453,217.19489c-2.08421,49.77744 -43.08132,89.49677 -93.37086,89.49677c-51.623,0 -93.47129,-43.25533 -93.47129,-93.47129c0,-6.71203 -0.12032,-20.12616 9.94375,-42.75814c6.02293,-13.54439 9.80056,-22.05326 11.93251,-29.83126c1.17137,-4.27482 3.44949,-11.0664 9.94375,0c3.82934,6.52509 3.9775,15.91001 3.9775,15.91001c0,0 14.24741,-10.93316 23.86501,-31.82001c14.09925,-30.6198 2.84988,-48.92327 -0.99438,-61.65128c-1.33047,-4.40309 -2.16575,-12.31633 6.96063,-8.94938c9.2994,3.43159 33.88434,20.64125 46.73565,38.78064c18.34126,25.88856 24.85939,50.71315 24.85939,50.71315c0,0 5.87278,-7.28877 7.955,-14.91563c2.3517,-8.61229 2.3865,-17.14204 9.94276,-7.95401c7.18635,8.73758 17.85898,25.1577 23.86601,40.7684c10.9073,28.34865 7.85457,55.68204 7.85457,55.68204z" fill="url(#color-1)"/><path d="M239.85367,306.69166c-35.69708,0 -64.6344,-28.93732 -64.6344,-64.6344c0,-21.53917 8.6799,-34.6162 26.74472,-52.34989c11.56658,-11.35477 22.39234,-25.30089 26.99332,-34.79717c0.90588,-1.86943 2.96722,-11.61132 10.91526,-0.20484c4.16942,5.98216 10.70545,16.62099 14.89674,25.70063c7.22513,15.65445 8.94938,30.82564 8.94938,30.82564c0,0 7.08095,-4.1724 11.93251,-14.91563c1.56415,-3.46242 4.72627,-16.57027 13.56626,-3.4644c6.48631,9.6176 15.39691,26.90979 15.27062,49.20567c0,35.69708 -28.93831,64.6344 -64.6344,64.6344z" fill="#fcfcfc"/><path d="M240.84804,236.09101c9.19797,0 9.19797,17.03266 20.88188,39.77502c7.77999,15.14334 -3.85718,30.82564 -20.88188,30.82564c-17.0247,0 -25.85376,-13.80094 -25.85376,-30.82564c0,-17.02371 16.65579,-39.77502 25.85376,-39.77502z" fill="#c3c3c3"/></g></g></svg>