<?xml version="1.0" encoding="UTF-8" standalone="no"?>
<!-- Created with Inkscape (http://www.inkscape.org/) -->

<svg
   version="1.1"
   id="svg1"
   width="1024"
   height="1024"
   viewBox="0 0 1024 1024"
   sodipodi:docname="heart.svg"
   inkscape:version="1.4.2 (f4327f4, 2025-05-13)"
   xmlns:inkscape="http://www.inkscape.org/namespaces/inkscape"
   xmlns:sodipodi="http://sodipodi.sourceforge.net/DTD/sodipodi-0.dtd"
   xmlns="http://www.w3.org/2000/svg"
   xmlns:svg="http://www.w3.org/2000/svg">
  <defs
     id="defs1" />
  <sodipodi:namedview
     id="namedview1"
     pagecolor="#ffffff"
     bordercolor="#000000"
     borderopacity="0.25"
     inkscape:showpageshadow="2"
     inkscape:pageopacity="0.0"
     inkscape:pagecheckerboard="true"
     inkscape:deskcolor="#d1d1d1"
     showgrid="false"
     inkscape:zoom="0.78808594"
     inkscape:cx="512"
     inkscape:cy="364.80793"
     inkscape:window-width="1920"
     inkscape:window-height="1009"
     inkscape:window-x="-8"
     inkscape:window-y="-8"
     inkscape:window-maximized="1"
     inkscape:current-layer="g8" />
  <g
     inkscape:groupmode="layer"
     inkscape:label="Image"
     id="g1">
    <g
       id="g8">
      <path
         style="fill:#36b4fd"
         d="m 513,954.5 c -2.42903,-2.475 -4.19142,-4.5 -3.91642,-4.5 0.275,0 2.48739,2.025 4.91642,4.5 2.42903,2.475 4.19142,4.5 3.91642,4.5 -0.275,0 -2.48739,-2.025 -4.91642,-4.5 z M 543.5,936 c 4.92707,-4.95 9.1833,-9 9.4583,-9 0.275,0 -3.53123,4.05 -8.4583,9 -4.92707,4.95 -9.1833,9 -9.4583,9 -0.275,0 3.53123,-4.05 8.4583,-9 z m -54.53416,-4.75 -5.46584,-5.75 5.75,5.46584 c 3.1625,3.00621 5.75,5.59371 5.75,5.75 0,0.74225 -0.95622,-0.12391 -6.03416,-5.46584 z m 17.87378,-10.96343 C 500.05283,913.723 411.025,828.33535 309,730.53625 102.03869,532.14731 97.31388,527.56659 85.076396,513.4418 52.679794,476.04887 29.702589,426.85943 22.50996,379.5 20.226642,364.46563 19.43792,337.07157 20.91202,324 25.833221,280.36127 40.838935,241.31798 67.800917,202 87.805974,172.82713 116.27042,145.17804 146.96492,125.10362 223.80485,74.849781 324.66669,70.464303 411,113.62336 c 36.68235,18.33796 65.2091,41.31794 92.8406,74.78863 5.86267,7.10159 11.58316,14.01872 12.71221,15.37141 l 2.05281,2.45942 12.26192,-15.65502 c 32.27896,-41.21114 67.94378,-68.49398 112.43382,-86.00951 33.12578,-13.041476 64.04654,-18.244403 102.66987,-17.275902 42.41155,1.063494 77.05755,9.663235 114.42184,28.401502 38.52652,19.32112 74.8104,51.39893 98.76396,87.3151 23.7378,35.59268 36.63322,69.56803 42.50267,111.98101 2.108,15.2332 2.3522,49.76764 0.456,64.5 -6.71975,52.20858 -28.15619,98.19209 -68.01525,145.90021 C 930.4702,529.74532 841.1,617.69102 735.5,720.83509 629.9,823.97917 538.02783,913.73615 531.33962,920.29506 l -12.16039,11.92528 z M 714.21434,698.68744 c 1.32249,-2.07988 0.84294,-6.96666 -0.86933,-8.8587 -2.06213,-2.27863 -7.08898,-2.37042 -9.51627,-0.17375 -3.59752,3.25571 -1.757,9.97121 3.17126,11.57094 1.84648,0.59938 6.19118,-0.92938 7.21434,-2.53849 z M 828.41878,594.64914 C 879.33845,546.88117 921,507.52162 921,507.18349 c 0,-0.33814 -2.07293,-2.71937 -4.60651,-5.29163 l -4.60651,-4.67683 -93.39709,87.60448 -93.3971,87.60447 4.72531,4.79745 c 2.59891,2.63859 5.03898,4.68069 5.42238,4.538 0.38339,-0.14268 42.35862,-39.34232 93.2783,-87.11029 z M 83.461759,311 c 6.040893,-27.65833 12.923528,-47.87862 23.996981,-70.5 20.54637,-41.97313 46.90896,-69.09613 85.04126,-87.49421 17.7744,-8.5758 32.8268,-13.18804 56.00312,-17.16002 11.27988,-1.93316 16.76198,-2.23524 41.49688,-2.28659 15.675,-0.0325 32.86874,0.31891 38.20831,0.78102 10.96962,0.94936 9.91865,1.70017 11.22971,-8.0225 0.68563,-5.08453 1.26781,-4.84522 -15.53755,-6.38693 -17.0844,-1.56732 -60.04396,-0.69655 -73.90047,1.49793 -70.53479,11.17069 -117.50519,43.67572 -151.291241,104.69841 -8.741408,15.78829 -20.092837,45.71117 -25.663562,67.65031 -3.299801,12.99558 -6.121421,27.47884 -5.480187,28.12959 0.896661,0.90996 11.852713,2.79047 12.550799,2.15424 C 80.454504,323.75256 81.960181,317.875 83.461759,311 Z M 464.46241,907.75 459.5,902.5 l 5.25,4.96241 c 4.87839,4.61116 5.7086,5.53759 4.96241,5.53759 -0.15818,0 -2.52068,-2.3625 -5.25,-5.25 z M 586.5,894 c 4.92707,-4.95 9.1833,-9 9.4583,-9 0.275,0 -3.53123,4.05 -8.4583,9 -4.92707,4.95 -9.1833,9 -9.4583,9 -0.275,0 3.53123,-4.05 8.4583,-9 z M 439.96584,884.25 434.5,878.5 l 5.75,5.46584 c 3.1625,3.00621 5.75,5.59371 5.75,5.75 0,0.74225 -0.95622,-0.12391 -6.03416,-5.46584 z m -24.50343,-23.5 -4.96241,-5.25 5.25,4.96241 c 4.87839,4.61116 5.7086,5.53759 4.96241,5.53759 -0.15818,0 -2.52068,-2.3625 -5.25,-5.25 z M 629.5,852 c 4.92707,-4.95 9.1833,-9 9.4583,-9 0.275,0 -3.53123,4.05 -8.4583,9 -4.92707,4.95 -9.1833,9 -9.4583,9 -0.275,0 3.53123,-4.05 8.4583,-9 z M 390.96584,837.25 385.5,831.5 l 5.75,5.46584 c 5.34193,5.07794 6.20809,6.03416 5.46584,6.03416 -0.15629,0 -2.74379,-2.5875 -5.75,-5.75 z m -25,-24 -5.46584,-5.75 5.75,5.46584 c 3.1625,3.00621 5.75,5.59371 5.75,5.75 0,0.74225 -0.95622,-0.12391 -6.03416,-5.46584 z M 673,809.5 c 5.20327,-5.225 9.6855,-9.5 9.9605,-9.5 0.275,0 -3.75723,4.275 -8.9605,9.5 -5.20327,5.225 -9.6855,9.5 -9.9605,9.5 -0.275,0 3.75723,-4.275 8.9605,-9.5 z M 341.46241,789.75 336.5,784.5 l 5.25,4.96241 c 4.87839,4.61116 5.7086,5.53759 4.96241,5.53759 -0.15818,0 -2.52068,-2.3625 -5.25,-5.25 z M 716.5,767 c 4.92707,-4.95 9.1833,-9 9.4583,-9 0.275,0 -3.53123,4.05 -8.4583,9 -4.92707,4.95 -9.1833,9 -9.4583,9 -0.275,0 3.53123,-4.05 8.4583,-9 z M 316.96584,766.25 311.5,760.5 l 5.75,5.46584 c 3.1625,3.00621 5.75,5.59371 5.75,5.75 0,0.74225 -0.95622,-0.12391 -6.03416,-5.46584 z m -25,-24 -5.46584,-5.75 5.75,5.46584 c 3.1625,3.00621 5.75,5.59371 5.75,5.75 0,0.74225 -0.95622,-0.12391 -6.03416,-5.46584 z M 759.5,725 c 4.92707,-4.95 9.1833,-9 9.4583,-9 0.275,0 -3.53123,4.05 -8.4583,9 -4.92707,4.95 -9.1833,9 -9.4583,9 -0.275,0 3.53123,-4.05 8.4583,-9 z M 267.46241,718.75 262.5,713.5 l 5.25,4.96241 c 4.87839,4.61116 5.7086,5.53759 4.96241,5.53759 -0.15818,0 -2.52068,-2.3625 -5.25,-5.25 z m -24.49657,-23.5 -5.46584,-5.75 5.75,5.46584 c 3.1625,3.00621 5.75,5.59371 5.75,5.75 0,0.74225 -0.95622,-0.12391 -6.03416,-5.46584 z M 802.5,683 c 4.92707,-4.95 9.1833,-9 9.4583,-9 0.275,0 -3.53123,4.05 -8.4583,9 -4.92707,4.95 -9.1833,9 -9.4583,9 -0.275,0 3.53123,-4.05 8.4583,-9 z M 218.46241,671.75 213.5,666.5 l 5.25,4.96241 c 4.87839,4.61116 5.7086,5.53759 4.96241,5.53759 -0.15818,0 -2.52068,-2.3625 -5.25,-5.25 z m -24.49657,-23.5 -5.46584,-5.75 5.75,5.46584 c 3.1625,3.00621 5.75,5.59371 5.75,5.75 0,0.74225 -0.95622,-0.12391 -6.03416,-5.46584 z M 846,640.5 c 5.20327,-5.225 9.6855,-9.5 9.9605,-9.5 0.275,0 -3.75723,4.275 -8.9605,9.5 -5.20327,5.225 -9.6855,9.5 -9.9605,9.5 -0.275,0 3.75723,-4.275 8.9605,-9.5 z M 168.96584,624.25 163.5,618.5 l 5.75,5.46584 c 5.34193,5.07794 6.20809,6.03416 5.46584,6.03416 -0.15629,0 -2.74379,-2.5875 -5.75,-5.75 z M 889.5,598 c 4.92707,-4.95 9.1833,-9 9.4583,-9 0.275,0 -3.53123,4.05 -8.4583,9 -4.92707,4.95 -9.1833,9 -9.4583,9 -0.275,0 3.53123,-4.05 8.4583,-9 z m -745.03759,2.75 -4.96241,-5.25 5.25,4.96241 c 2.8875,2.72932 5.25,5.09182 5.25,5.25 0,0.74619 -0.92643,-0.084 -5.53759,-4.96241 z m -24.49657,-23.5 -5.46584,-5.75 5.75,5.46584 c 5.34193,5.07794 6.20809,6.03416 5.46584,6.03416 -0.15629,0 -2.74379,-2.5875 -5.75,-5.75 z M 933,555.5 c 5.20327,-5.225 9.6855,-9.5 9.9605,-9.5 0.275,0 -3.75723,4.275 -8.9605,9.5 -5.20327,5.225 -9.6855,9.5 -9.9605,9.5 -0.275,0 3.75723,-4.275 8.9605,-9.5 z M 95.462408,553.75 90.5,548.5 l 5.25,4.96241 c 4.87839,4.61116 5.7086,5.53759 4.96241,5.53759 -0.15818,0 -2.520677,-2.3625 -5.250002,-5.25 z m -14,-14 L 76.5,534.5 l 5.25,4.96241 C 86.628394,544.07357 87.4586,545 86.712408,545 c -0.158175,0 -2.520675,-2.3625 -5.25,-5.25 z M 3.0789474,387.41667 c 0.047984,-1.16495 0.2849403,-1.4019 0.6041666,-0.60417 0.2888706,0.72187 0.2533443,1.58438 -0.078947,1.91667 -0.3322917,0.33229 -0.5686404,-0.25834 -0.5252193,-1.3125 z m 1017.9999526,-1 c 0.048,-1.16495 0.285,-1.4019 0.6042,-0.60417 0.2889,0.72187 0.2534,1.58438 -0.079,1.91667 -0.3323,0.33229 -0.5687,-0.25834 -0.5253,-1.3125 z m -1018.9999526,-5 c 0.047984,-1.16495 0.2849403,-1.4019 0.6041666,-0.60417 0.2888706,0.72187 0.2533443,1.58438 -0.078947,1.91667 -0.3322917,0.33229 -0.5686404,-0.25834 -0.5252193,-1.3125 z M 1022.1579,378 c 0,-1.375 0.227,-1.9375 0.5044,-1.25 0.2774,0.6875 0.2774,1.8125 0,2.5 -0.2774,0.6875 -0.5044,0.125 -0.5044,-1.25 z M 1.1578947,373 c 0,-1.375 0.2269737,-1.9375 0.504386,-1.25 0.2774123,0.6875 0.2774123,1.8125 0,2.5 -0.2774123,0.6875 -0.504386,0.125 -0.504386,-1.25 z M 1023.232,366 c 0,-1.925 0.2058,-2.7125 0.4573,-1.75 0.2516,0.9625 0.2516,2.5375 0,3.5 -0.2515,0.9625 -0.4573,0.175 -0.4573,-1.75 z M 0.2320027,362 c 0,-1.925 0.20579527,-2.7125 0.45732281,-1.75 0.25152755,0.9625 0.25152755,2.5375 0,3.5 C 0.43779797,364.7125 0.2320027,363.925 0.2320027,362 Z M 1023.2522,333.5 c 0.011,-2.2 0.2159,-2.98225 0.4551,-1.73834 0.2392,1.24391 0.2301,3.04391 -0.02,4 -0.2503,0.95609 -0.446,-0.0617 -0.4349,-2.26166 z M 0.2320027,328 c 0,-1.925 0.20579527,-2.7125 0.45732281,-1.75 0.25152755,0.9625 0.25152755,2.5375 0,3.5 C 0.43779797,330.7125 0.2320027,329.925 0.2320027,328 Z M 1022.1579,321 c 0,-1.375 0.227,-1.9375 0.5044,-1.25 0.2774,0.6875 0.2774,1.8125 0,2.5 -0.2774,0.6875 -0.5044,0.125 -0.5044,-1.25 z M 1.0789474,317.41667 c 0.047984,-1.16495 0.2849403,-1.4019 0.6041666,-0.60417 0.2888706,0.72187 0.2533443,1.58438 -0.078947,1.91667 -0.3322917,0.33229 -0.5686404,-0.25834 -0.5252193,-1.3125 z m 1019.9999526,-5 c 0.048,-1.16495 0.285,-1.4019 0.6042,-0.60417 0.2889,0.72187 0.2534,1.58438 -0.079,1.91667 -0.3323,0.33229 -0.5687,-0.25834 -0.5253,-1.3125 z m -1018.9999526,-3 c 0.047984,-1.16495 0.2849403,-1.4019 0.6041666,-0.60417 0.2888706,0.72187 0.2533443,1.58438 -0.078947,1.91667 -0.3322917,0.33229 -0.5686404,-0.25834 -0.5252193,-1.3125 z m 1,-6 c 0.047984,-1.16495 0.2849403,-1.4019 0.6041666,-0.60417 0.2888706,0.72187 0.2533443,1.58438 -0.078947,1.91667 -0.3322917,0.33229 -0.5686404,-0.25834 -0.5252193,-1.3125 z M 960.87244,172.25 c -1.24387,-1.58606 -1.2085,-1.62143 0.37756,-0.37756 0.9625,0.75485 1.75,1.54235 1.75,1.75 0,0.82304 -0.82119,0.29331 -2.12756,-1.37244 z m -5,-6 c -1.24387,-1.58606 -1.2085,-1.62143 0.37756,-0.37756 1.66575,1.30637 2.19548,2.12756 1.37244,2.12756 -0.20765,0 -0.99515,-0.7875 -1.75,-1.75 z M 70,165.62244 c 0,-0.20765 0.7875,-0.99515 1.75,-1.75 1.586056,-1.24387 1.621426,-1.2085 0.377555,0.37756 C 70.821186,165.91575 70,166.44548 70,165.62244 Z M 505.92431,160.25 503.5,157.5 l 2.75,2.42431 c 1.5125,1.33338 2.75,2.57088 2.75,2.75 0,0.78428 -0.8098,0.14598 -3.07569,-2.42431 z M 528.5,161 c 0.99549,-1.1 2.03498,-2 2.30998,-2 0.275,0 -0.31449,0.9 -1.30998,2 -0.99549,1.1 -2.03498,2 -2.30998,2 -0.275,0 0.31449,-0.9 1.30998,-2 z m 418.93709,-4.25 -2.93709,-3.25 3.25,2.93709 c 1.7875,1.6154 3.25,3.0779 3.25,3.25 0,0.77256 -0.82513,0.0924 -3.56291,-2.93709 z M 80.5,154 c 2.708649,-2.75 5.149816,-5 5.424816,-5 0.275,0 -1.716167,2.25 -4.424816,5 -2.708649,2.75 -5.149816,5 -5.424816,5 -0.275,0 1.716167,-2.25 4.424816,-5 z m 460.45821,-6.25 c 2.45201,-2.6125 4.58951,-4.75 4.75,-4.75 0.75088,0 -0.043,0.89783 -4.45821,5.04179 L 536.5,152.5 Z m 392.47888,-5 -2.93709,-3.25 3.25,2.93709 c 1.7875,1.6154 3.25,3.0779 3.25,3.25 0,0.77256 -0.82513,0.0924 -3.56291,-2.93709 z M 90,144.68709 c 0,-0.1721 1.4625,-1.6346 3.25,-3.25 L 96.5,138.5 93.562909,141.75 C 90.825128,144.77946 90,145.45965 90,144.68709 Z M 487.40499,141.75 485.5,139.5 l 2.25,1.90499 c 1.2375,1.04774 2.25,2.06024 2.25,2.25 0,0.80025 -0.80479,0.20945 -2.59501,-1.90499 z M 553,136.62244 c 0,-0.20765 0.7875,-0.99515 1.75,-1.75 1.58606,-1.24387 1.62143,-1.2085 0.37756,0.37756 C 553.82119,136.91575 553,137.44548 553,136.62244 Z M 478.87244,134.25 c -1.24387,-1.58606 -1.2085,-1.62143 0.37756,-0.37756 0.9625,0.75485 1.75,1.54235 1.75,1.75 0,0.82304 -0.82119,0.29331 -2.12756,-1.37244 z M 102,133.62244 c 0,-0.20765 0.7875,-0.99515 1.75,-1.75 1.58606,-1.24387 1.62143,-1.2085 0.37756,0.37756 C 102.82119,133.91575 102,134.44548 102,133.62244 Z m 6,-5 c 0,-0.20765 0.7875,-0.99515 1.75,-1.75 1.58606,-1.24387 1.62143,-1.2085 0.37756,0.37756 C 108.82119,128.91575 108,129.44548 108,128.62244 Z M 690.8125,70.316886 c 0.72187,-0.288871 1.58438,-0.253344 1.91667,0.07895 0.33229,0.332292 -0.25834,0.568641 -1.3125,0.52522 -1.16495,-0.04798 -1.4019,-0.284941 -0.60417,-0.604167 z m -347,-1 c 0.72187,-0.288871 1.58438,-0.253344 1.91667,0.07895 0.33229,0.332292 -0.25834,0.568641 -1.3125,0.52522 -1.16495,-0.04798 -1.4019,-0.284941 -0.60417,-0.604167 z m 354,0 c 0.72187,-0.288871 1.58438,-0.253344 1.91667,0.07895 0.33229,0.332292 -0.25834,0.568641 -1.3125,0.52522 -1.16495,-0.04798 -1.4019,-0.284941 -0.60417,-0.604167 z m 81,0 c 0.72187,-0.288871 1.58438,-0.253344 1.91667,0.07895 0.33229,0.332292 -0.25834,0.568641 -1.3125,0.52522 -1.16495,-0.04798 -1.4019,-0.284941 -0.60417,-0.604167 z m -543,-1 c 0.72187,-0.288871 1.58437,-0.253344 1.91667,0.07895 0.33229,0.332292 -0.25834,0.568641 -1.3125,0.52522 -1.16495,-0.04798 -1.4019,-0.284941 -0.60417,-0.604167 z m 102,0 c 0.72187,-0.288871 1.58438,-0.253344 1.91667,0.07895 0.33229,0.332292 -0.25834,0.568641 -1.3125,0.52522 -1.16495,-0.04798 -1.4019,-0.284941 -0.60417,-0.604167 z m 367.9375,0.02083 c 0.6875,-0.277412 1.8125,-0.277412 2.5,0 0.6875,0.277413 0.125,0.504386 -1.25,0.504386 -1.375,0 -1.9375,-0.226973 -1.25,-0.504386 z m 65.0625,-0.02083 c 0.72187,-0.288871 1.58438,-0.253344 1.91667,0.07895 0.33229,0.332292 -0.25834,0.568641 -1.3125,0.52522 -1.16495,-0.04798 -1.4019,-0.284941 -0.60417,-0.604167 z m -529,-1 c 0.72187,-0.288871 1.58437,-0.253344 1.91667,0.07895 0.33229,0.332292 -0.25834,0.568641 -1.3125,0.52522 -1.16495,-0.04798 -1.4019,-0.284941 -0.60417,-0.604167 z m 90,0 c 0.72187,-0.288871 1.58438,-0.253344 1.91667,0.07895 0.33229,0.332292 -0.25834,0.568641 -1.3125,0.52522 -1.16495,-0.04798 -1.4019,-0.284941 -0.60417,-0.604167 z m 383.94916,-0.02415 c 1.24391,-0.239193 3.04391,-0.230112 4,0.02018 0.95609,0.250292 -0.0617,0.445996 -2.26166,0.434897 -2.2,-0.0111 -2.98225,-0.215885 -1.73834,-0.455078 z m 42.48834,0.01794 c 0.9625,-0.251527 2.5375,-0.251527 3.5,0 0.9625,0.251528 0.175,0.457323 -1.75,0.457323 -1.925,0 -2.7125,-0.205795 -1.75,-0.457323 z M 248.8125,66.316886 c 0.72187,-0.288871 1.58437,-0.253344 1.91667,0.07895 0.33229,0.332292 -0.25834,0.568641 -1.3125,0.52522 -1.16495,-0.04798 -1.4019,-0.284941 -0.60417,-0.604167 z m 76,0 c 0.72187,-0.288871 1.58438,-0.253344 1.91667,0.07895 0.33229,0.332292 -0.25834,0.568641 -1.3125,0.52522 -1.16495,-0.04798 -1.4019,-0.284941 -0.60417,-0.604167 z m 415.45125,-0.03447 c 1.52006,-0.229855 3.77006,-0.223712 5,0.01365 1.22994,0.237362 -0.0137,0.425424 -2.76375,0.417917 -2.75,-0.0075 -3.75631,-0.201713 -2.23625,-0.431567 z M 256.8125,65.316886 c 0.72187,-0.288871 1.58438,-0.253344 1.91667,0.07895 0.33229,0.332292 -0.25834,0.568641 -1.3125,0.52522 -1.16495,-0.04798 -1.4019,-0.284941 -0.60417,-0.604167 z m 58.9375,0.02083 c 0.6875,-0.277412 1.8125,-0.277412 2.5,0 0.6875,0.277413 0.125,0.504386 -1.25,0.504386 -1.375,0 -1.9375,-0.226973 -1.25,-0.504386 z m -47.48097,-1.03071 c 0.97297,-0.253543 2.32297,-0.236869 3,0.03705 0.67703,0.273923 -0.11903,0.481368 -1.76903,0.460988 -1.65,-0.02038 -2.20394,-0.244498 -1.23097,-0.498042 z m 34.49263,-0.01427 c 1.24391,-0.239193 3.04391,-0.230112 4,0.02018 0.95609,0.250292 -0.0617,0.445996 -2.26166,0.434897 -2.2,-0.0111 -2.98225,-0.215885 -1.73834,-0.455078 z"
         id="path9" />
      <path
         style="fill:#0072b5"
         d="M 303.97725,753.25902 C 185.46476,639.53827 84.205605,541.98496 78.9569,536.47389 52.207463,508.38736 29.827662,472.21362 16.565641,435.62739 0.69036131,391.8319 -3.6948459,347.56219 3.5766068,304.5 16.166648,229.94066 65.453188,155.58256 131.5,111.50328 192.34351,70.896661 262.35236,56.237692 336.8152,68.512871 c 66.6791,10.992032 127.787,45.147899 174.78877,97.697059 l 6.89603,7.70993 7.5,-9.05752 c 23.05369,-27.84122 54.51889,-52.23327 89.5,-69.381049 41.8627,-20.521139 85.1659,-29.685643 133,-28.147553 82.45495,2.651314 157.11594,38.869192 209.99068,101.866002 55.83982,66.52949 78.16032,160.00677 57.91832,242.5593 -10.7192,43.71585 -35.29417,89.68541 -68.68547,128.48212 -3.29547,3.82894 -93.56892,92.48075 -200.60765,197.004 C 640.07715,841.76842 545.06476,934.65318 535.97725,943.65574 l -16.52276,16.36829 z M 735.5,720.83509 C 841.1,617.69102 930.4702,529.74532 934.10045,525.40021 973.95951,477.69209 995.39595,431.70858 1002.1157,379.5 c 1.8962,-14.73236 1.652,-49.2668 -0.456,-64.5 -4.59068,-33.17244 -15.32073,-66.15366 -29.82078,-91.66074 C 937.729,163.33641 885.17777,120.14143 821.33291,99.629405 795.84066,91.439278 774.99971,88.030294 745.97123,87.302388 707.3479,86.333887 676.42714,91.536814 643.30136,104.57829 598.81132,122.09382 563.1465,149.37666 530.86754,190.5878 l -12.26192,15.65502 -2.05281,-2.45942 c -1.12905,-1.35269 -6.84954,-8.26982 -12.71221,-15.37141 C 476.2091,154.9413 447.68235,131.96132 411,113.62336 357.65117,86.953639 299.45942,78.215694 241,88.096535 188.3407,96.997037 138.95465,123.61117 98.964747,164.6393 80.434481,183.65066 68.555866,199.09002 56.10144,220.35135 36.036669,254.60455 25.107625,286.79549 20.91202,324 c -1.4741,13.07157 -0.685378,40.46563 1.59794,55.5 7.192629,47.35943 30.169834,96.54887 62.566436,133.9418 C 97.31388,527.56659 102.03869,532.14731 309,730.53625 411.025,828.33535 500.05283,913.723 506.83962,920.28657 l 12.33961,11.93377 12.16039,-11.92528 C 538.02783,913.73615 629.9,823.97917 735.5,720.83509 Z"
         id="path8" />
      <path
         style="fill:#f9f9f9;stroke-width:1.2689"
         d="m 730.37239,676.44813 -4.08674,-4.21644 90.51134,-84.87421 c 49.78124,-46.68081 91.5207,-85.67501 92.75436,-86.65378 1.98543,-1.57521 2.67488,-1.3658 6.00383,1.82353 2.06844,1.98169 3.76081,4.02214 3.76081,4.53432 0,1.27482 -179.59197,170.3756 -183.47181,172.75397 -0.76178,0.46698 -3.22409,-1.04835 -5.47179,-3.36739 z"
         id="path11" />
      <path
         style="fill:#f9f9f9;stroke-width:1.2689"
         d="m 704.87237,698.52788 c -3.05515,-3.05515 -3.21707,-5.48394 -0.54382,-8.15719 2.37477,-2.37477 5.79594,-2.57879 7.90342,-0.47131 2.41277,2.41277 1.85,8.36403 -0.9317,9.85275 -3.27418,1.75229 -3.49304,1.71061 -6.4279,-1.22425 z"
         id="path12" />
      <path
         style="fill:#f9f9f9;stroke-width:1.2689"
         d="m 69.42179,321.85723 c -3.698405,-2.34643 9.127402,-48.63602 21.438628,-77.37413 7.285491,-17.00652 16.041162,-31.8575 28.545542,-48.41767 28.84698,-38.2035 68.78097,-61.90166 122.03276,-72.41831 22.93714,-4.52984 90.30678,-5.07031 95.93436,-0.76963 1.44038,1.10076 1.6911,2.59997 0.98927,5.91557 l -0.94006,4.44114 -40.55253,0.05 c -39.36761,0.0485 -41.03375,0.15239 -57.02168,3.55567 -28.70032,6.10932 -47.2049,13.59406 -69.13864,27.96524 -42.00901,27.52467 -72.05072,76.72464 -87.063159,142.58527 l -3.543136,15.54399 -4.522453,-0.0194 c -2.487348,-0.0107 -5.258854,-0.48664 -6.158902,-1.05767 z"
         id="path13" />
    </g>
  </g>
</svg>
